<svg width="52" height="52" viewBox="0 0 52 52" fill="none" xmlns="http://www.w3.org/2000/svg">
<path d="M26 0.499969C20.9566 0.499969 16.0264 1.99552 11.833 4.79749C7.63952 7.59947 4.37112 11.582 2.44108 16.2415C0.511048 20.9011 0.00606385 26.0283 0.989987 30.9748C1.97391 35.9213 4.40255 40.465 7.96879 44.0312C11.535 47.5974 16.0787 50.0261 21.0252 51.01C25.9717 51.9939 31.0989 51.4889 35.7584 49.5589C40.418 47.6289 44.4005 44.3605 47.2025 40.167C50.0045 35.9736 51.5 31.0434 51.5 26C51.4921 19.2394 48.8029 12.758 44.0225 7.97752C39.242 3.19706 32.7606 0.507909 26 0.499969ZM26 48.5C21.5499 48.5 17.1998 47.1804 13.4997 44.708C9.79957 42.2357 6.91569 38.7217 5.21272 34.6103C3.50975 30.499 3.06417 25.975 3.93234 21.6104C4.80051 17.2459 6.94343 13.2367 10.0901 10.0901C13.2368 6.94339 17.2459 4.80047 21.6105 3.9323C25.975 3.06413 30.4991 3.50971 34.6104 5.21268C38.7217 6.91565 42.2357 9.79953 44.7081 13.4996C47.1804 17.1997 48.5 21.5499 48.5 26C48.4934 31.9653 46.1207 37.6844 41.9026 41.9026C37.6845 46.1207 31.9653 48.4934 26 48.5ZM41.5 26C41.5 26.3978 41.342 26.7793 41.0607 27.0606C40.7794 27.3419 40.3978 27.5 40 27.5H26C25.6022 27.5 25.2207 27.3419 24.9394 27.0606C24.658 26.7793 24.5 26.3978 24.5 26V12C24.5 11.6021 24.658 11.2206 24.9394 10.9393C25.2207 10.658 25.6022 10.5 26 10.5C26.3978 10.5 26.7794 10.658 27.0607 10.9393C27.342 11.2206 27.5 11.6021 27.5 12V24.5H40C40.3978 24.5 40.7794 24.658 41.0607 24.9393C41.342 25.2206 41.5 25.6021 41.5 26Z" fill="black"/>
</svg>
