<svg width="64" height="65" viewBox="0 0 64 65" fill="none" xmlns="http://www.w3.org/2000/svg">
<path d="M46.7137 24.2113C47.0137 23.9112 47.1822 23.5043 47.1822 23.0801C47.1822 22.6558 47.0137 22.2489 46.7137 21.9488L42.6401 17.8752C42.4925 17.7224 42.316 17.6005 42.1208 17.5167C41.9256 17.4328 41.7156 17.3887 41.5032 17.3868C41.2907 17.385 41.08 17.4255 40.8834 17.5059C40.6868 17.5864 40.5081 17.7052 40.3579 17.8554C40.2077 18.0056 40.0889 18.1843 40.0084 18.3809C39.928 18.5776 39.8875 18.7882 39.8893 19.0007C39.8912 19.2131 39.9353 19.4231 40.0192 19.6183C40.103 19.8135 40.2249 19.9901 40.3777 20.1376L44.4481 24.2113C44.7482 24.5112 45.1551 24.6797 45.5793 24.6797C46.0036 24.6797 46.4137 24.5112 46.7137 24.2113ZM24.9921 43.6705C25.1407 43.8192 25.2585 43.9958 25.3388 44.1901C25.4191 44.3844 25.4604 44.5926 25.4602 44.8028C25.4601 45.013 25.4185 45.2212 25.3379 45.4153C25.2573 45.6095 25.1393 45.7859 24.9905 45.9345C24.8418 46.083 24.6652 46.2008 24.4709 46.2811C24.2766 46.3614 24.0684 46.4027 23.8582 46.4026C23.648 46.4024 23.4398 46.3609 23.2456 46.2803C23.0515 46.1997 22.8751 46.0816 22.7265 45.9329L18.6561 41.8625C18.3557 41.5624 18.1867 41.1554 18.1864 40.7308C18.1863 40.5206 18.2275 40.3124 18.3079 40.1181C18.3882 39.9238 18.506 39.7472 18.6545 39.5985C18.8031 39.4497 18.9795 39.3317 19.1736 39.2511C19.3678 39.1705 19.576 39.1289 19.7862 39.1288C20.2108 39.1285 20.6181 39.2968 20.9185 39.5969L24.9921 43.6705ZM54.9409 9.70564C54.0612 8.8261 52.8681 8.332 51.6241 8.332C50.3801 8.332 49.1871 8.8261 48.3073 9.70564L46.3233 11.6896L45.5393 10.9088C44.921 10.2901 44.1732 9.81627 43.3496 9.52143C42.5261 9.2266 41.6474 9.11812 40.777 9.20383C39.9065 9.28953 39.0658 9.56728 38.3156 10.0171C37.5654 10.4668 36.9243 11.0774 36.4385 11.8048C34.9032 11.4715 33.3012 11.6443 31.8723 12.2973C30.4433 12.9503 29.2642 14.0484 28.5113 15.4273C27.7584 16.8063 27.4723 18.3919 27.6957 19.947C27.919 21.5022 28.6399 22.9432 29.7505 24.0545L31.8561 26.1569L25.5553 32.4577L23.4497 30.3521C22.3384 29.2415 20.8974 28.5206 19.3423 28.2972C17.7872 28.0738 16.2015 28.36 14.8226 29.1128C13.4436 29.8657 12.3455 31.0448 11.6925 32.4738C11.0396 33.9028 10.8668 35.5047 11.2001 37.0401C10.4746 37.5273 9.86581 38.169 9.4174 38.9192C8.96899 39.6694 8.69205 40.5094 8.60642 41.3792C8.52079 42.249 8.62859 43.1269 8.92209 43.9501C9.2156 44.7733 9.68754 45.5215 10.3041 46.1409L11.0881 46.9249L9.04972 48.9633C8.1692 49.8425 7.67402 51.0355 7.67312 52.2799C7.67222 53.5242 8.16567 54.7179 9.04492 55.5985C9.92416 56.479 11.1172 56.9742 12.3615 56.9751C13.6059 56.976 14.7996 56.4825 15.6801 55.6033L17.7217 53.5617L18.5025 54.3425C19.1208 54.9612 19.8687 55.435 20.6922 55.7299C21.5157 56.0247 22.3944 56.1332 23.2649 56.0475C24.1354 55.9618 24.976 55.684 25.7262 55.2343C26.4765 54.7845 27.1175 54.1739 27.6033 53.4465C29.1386 53.7798 30.7406 53.607 32.1696 52.954C33.5985 52.3011 34.7777 51.2029 35.5305 49.824C36.2834 48.445 36.5696 46.8594 36.3462 45.3043C36.1228 43.7491 35.4019 42.3081 34.2913 41.1969L32.1857 39.0945L38.4865 32.7969L40.5921 34.8993C41.7037 36.0084 43.1443 36.7279 44.6987 36.9505C46.2531 37.1731 47.8378 36.8866 49.2159 36.134C50.594 35.3814 51.6915 34.203 52.3445 32.775C52.9975 31.3469 53.1708 29.7459 52.8385 28.2113C53.1585 27.9979 53.4572 27.7526 53.7345 27.4753C54.8425 26.3653 55.4648 24.8611 55.4648 23.2929C55.4648 21.7246 54.8425 20.2204 53.7345 19.1104L52.9537 18.3296L54.9377 16.3456C55.8151 15.4641 56.3077 14.271 56.3077 13.0272C56.3077 11.7835 55.8151 10.5904 54.9377 9.70884M50.6881 16.064L48.5825 13.952L50.5665 11.968C50.7052 11.8296 50.8698 11.7198 51.0509 11.6449C51.232 11.5701 51.4261 11.5316 51.6221 11.5318C51.818 11.5319 52.012 11.5707 52.193 11.6458C52.374 11.7209 52.5385 11.831 52.6769 11.9696C52.8154 12.1083 52.9252 12.2729 53 12.454C53.0749 12.6351 53.1133 12.8292 53.1132 13.0252C53.1131 13.2211 53.0743 13.4152 52.9992 13.5962C52.924 13.7772 52.814 13.9416 52.6753 14.08L50.6881 16.064ZM36.2241 30.5281L29.9233 36.8289L27.8145 34.7201L34.1153 28.4225L36.2241 30.5281ZM15.4561 51.2961L13.4177 53.3345C13.1381 53.6145 12.7586 53.772 12.3629 53.7723C11.9671 53.7726 11.5874 53.6157 11.3073 53.3361C11.0273 53.0564 10.8697 52.677 10.8694 52.2812C10.8691 51.8854 11.0261 51.5057 11.3057 51.2257L13.3505 49.1873L15.4561 51.2961ZM39.4369 13.1712C39.9467 12.6632 40.6372 12.3779 41.3569 12.3779C42.0767 12.3779 42.7671 12.6632 43.2769 13.1712L51.4753 21.3696C51.8052 21.6975 52.0452 22.1046 52.1724 22.5519C52.2996 22.9992 52.3097 23.4718 52.2018 23.9241C52.0938 24.3765 51.8715 24.7935 51.556 25.1351C51.2405 25.4768 50.8425 25.7317 50.4001 25.8753C50.1858 25.9451 49.9887 26.0593 49.8217 26.2106C49.6546 26.3619 49.5214 26.5468 49.4308 26.7531C49.3402 26.9595 49.2941 27.1826 49.2957 27.408C49.2974 27.6333 49.3466 27.8558 49.4401 28.0609C49.8365 28.9291 49.9154 29.9089 49.6631 30.8294C49.4108 31.7499 48.8434 32.5526 48.0597 33.0974C47.276 33.6422 46.3259 33.8945 45.3752 33.8104C44.4245 33.7262 43.5335 33.3109 42.8577 32.6369L32.0097 21.792C31.3357 21.1163 30.9204 20.2253 30.8362 19.2746C30.752 18.3239 31.0044 17.3738 31.5492 16.5901C32.094 15.8064 32.8967 15.2389 33.8171 14.9866C34.7376 14.7343 35.7175 14.8133 36.5857 15.2096C36.7909 15.3038 37.0137 15.3534 37.2394 15.3553C37.4651 15.3572 37.6887 15.3113 37.8955 15.2206C38.1022 15.1299 38.2874 14.9965 38.4389 14.8292C38.5904 14.6619 38.7048 14.4643 38.7745 14.2496C38.9068 13.8437 39.1339 13.472 39.4369 13.1712ZM15.4273 32.6177C16.1912 31.854 17.2272 31.425 18.3073 31.425C19.3875 31.425 20.4234 31.854 21.1873 32.6177L32.0321 43.4625C32.7061 44.1382 33.1215 45.0292 33.2056 45.9799C33.2898 46.9307 33.0375 47.8807 32.4927 48.6644C31.9479 49.4481 31.1452 50.0156 30.2247 50.2679C29.3042 50.5202 28.3244 50.4412 27.4561 50.0449C27.2511 49.9513 27.0286 49.9021 26.8033 49.9005C26.5779 49.8989 26.3547 49.9449 26.1484 50.0355C25.942 50.1262 25.7572 50.2594 25.6059 50.4264C25.4546 50.5935 25.3403 50.7906 25.2705 51.0049C25.1264 51.446 24.8716 51.8427 24.5304 52.1573C24.1893 52.4718 23.7731 52.6936 23.3218 52.8015C22.8705 52.9094 22.399 52.8997 21.9525 52.7734C21.506 52.6471 21.0993 52.4084 20.7713 52.0801L12.5697 43.8817C12.2414 43.5537 12.0027 43.147 11.8764 42.7005C11.7501 42.254 11.7404 41.7825 11.8483 41.3312C11.9562 40.8798 12.1779 40.4637 12.4925 40.1225C12.807 39.7814 13.2038 39.5266 13.6449 39.3825C13.8596 39.3127 14.0571 39.1983 14.2245 39.0468C14.3918 38.8953 14.5252 38.7101 14.6159 38.5034C14.7065 38.2967 14.7524 38.0731 14.7506 37.8474C14.7487 37.6216 14.699 37.3988 14.6049 37.1937C14.2575 36.4384 14.1501 35.5947 14.2971 34.7764C14.4442 33.9582 14.8386 33.2047 15.4273 32.6177Z" fill="black"/>
</svg>
