<svg width="12" height="14" viewBox="0 0 12 14" fill="none" xmlns="http://www.w3.org/2000/svg">
<path fill-rule="evenodd" clip-rule="evenodd" d="M0.724439 5.44299C0.621161 5.32201 0.570152 5.16496 0.582626 5.00638C0.5951 4.8478 0.670035 4.70066 0.790959 4.59732L5.54196 0.539634C5.66347 0.440789 5.81882 0.393381 5.97481 0.407537C6.13081 0.421693 6.27508 0.496291 6.37681 0.615394C6.47855 0.734496 6.52967 0.88866 6.51926 1.04495C6.50885 1.20124 6.43774 1.34726 6.32111 1.45182L1.57011 5.50951C1.44913 5.61279 1.29208 5.6638 1.1335 5.65132C0.974924 5.63885 0.827786 5.56391 0.724439 5.44299Z" fill="#2C2C2C"/>
<path fill-rule="evenodd" clip-rule="evenodd" d="M11.2453 5.31506C11.1449 5.43846 10.9996 5.51695 10.8414 5.53328C10.6832 5.54961 10.5249 5.50243 10.4015 5.40213L5.55319 1.4612C5.43406 1.35951 5.35941 1.21526 5.3452 1.05927C5.331 0.903278 5.37836 0.747917 5.47716 0.626375C5.57597 0.504833 5.71838 0.426749 5.87399 0.408803C6.02959 0.390857 6.18605 0.434472 6.30992 0.530332L11.1582 4.47126C11.2816 4.57163 11.3601 4.7169 11.3764 4.87513C11.3928 5.03336 11.3456 5.1916 11.2453 5.31506Z" fill="#2C2C2C"/>
<path fill-rule="evenodd" clip-rule="evenodd" d="M5.93154 0.995823C6.09066 0.993887 6.24403 1.05524 6.35791 1.16639C6.47179 1.27753 6.53686 1.42936 6.53879 1.58848L6.67744 12.9876C6.67938 13.1468 6.61802 13.3001 6.50688 13.414C6.39573 13.5279 6.2439 13.593 6.08478 13.5949C5.92566 13.5968 5.77229 13.5355 5.65841 13.4243C5.54453 13.3132 5.47947 13.1614 5.47753 13.0022L5.33888 1.60308C5.33694 1.44396 5.3983 1.29059 5.50944 1.17671C5.62059 1.06282 5.77242 0.997758 5.93154 0.995823Z" fill="#2C2C2C"/>
</svg>
