<svg width="64" height="65" viewBox="0 0 64 65" fill="none" xmlns="http://www.w3.org/2000/svg">
<path d="M44.5 11.0954C39.25 11.0954 34.685 13.4629 32 17.4304C29.315 13.4629 24.75 11.0954 19.5 11.0954C15.5232 11.1 11.7105 12.6818 8.89851 15.4939C6.08646 18.3059 4.50462 22.1185 4.49999 26.0954C4.49999 33.3954 9.04999 40.9929 18.025 48.6729C22.1376 52.1772 26.58 55.275 31.29 57.9229C31.5083 58.0401 31.7522 58.1015 32 58.1015C32.2478 58.1015 32.4917 58.0401 32.71 57.9229C37.4199 55.275 41.8623 52.1772 45.975 48.6729C54.95 40.9929 59.5 33.3954 59.5 26.0954C59.4954 22.1185 57.9135 18.3059 55.1015 15.4939C52.2894 12.6818 48.4768 11.1 44.5 11.0954ZM32 54.8729C27.8975 52.5054 7.49999 40.0254 7.49999 26.0954C7.5033 22.9138 8.76865 19.8635 11.0184 17.6137C13.2681 15.364 16.3184 14.0987 19.5 14.0954C24.57 14.0954 28.8275 16.8029 30.6125 21.1629C30.7255 21.438 30.9178 21.6733 31.1648 21.8389C31.4119 22.0045 31.7026 22.0929 32 22.0929C32.2974 22.0929 32.5881 22.0045 32.8352 21.8389C33.0822 21.6733 33.2745 21.438 33.3875 21.1629C35.1725 16.8029 39.43 14.0954 44.5 14.0954C47.6816 14.0987 50.7319 15.364 52.9816 17.6137C55.2313 19.8635 56.4967 22.9138 56.5 26.0954C56.5 40.0254 36.1025 52.5054 32 54.8729Z" fill="black"/>
</svg>
