<svg width="24" height="24" viewBox="0 0 24 24" fill="none" xmlns="http://www.w3.org/2000/svg">
<path fill-rule="evenodd" clip-rule="evenodd" d="M6.72444 10.443C6.62116 10.322 6.57015 10.165 6.58263 10.0064C6.5951 9.8478 6.67004 9.70066 6.79096 9.59732L11.542 5.53963C11.6635 5.44079 11.8188 5.39338 11.9748 5.40754C12.1308 5.42169 12.2751 5.49629 12.3768 5.61539C12.4785 5.7345 12.5297 5.88866 12.5193 6.04495C12.5089 6.20124 12.4377 6.34726 12.3211 6.45182L7.57011 10.5095C7.44913 10.6128 7.29208 10.6638 7.1335 10.6513C6.97492 10.6388 6.82779 10.5639 6.72444 10.443Z" fill="#2C2C2C"/>
<path fill-rule="evenodd" clip-rule="evenodd" d="M17.2453 10.3151C17.1449 10.4385 16.9996 10.517 16.8414 10.5333C16.6832 10.5496 16.5249 10.5024 16.4015 10.4021L11.5532 6.4612C11.4341 6.35951 11.3594 6.21526 11.3452 6.05927C11.331 5.90328 11.3784 5.74792 11.4772 5.62638C11.576 5.50483 11.7184 5.42675 11.874 5.4088C12.0296 5.39086 12.186 5.43447 12.3099 5.53033L17.1582 9.47126C17.2816 9.57163 17.3601 9.7169 17.3764 9.87513C17.3928 10.0334 17.3456 10.1916 17.2453 10.3151Z" fill="#2C2C2C"/>
<path fill-rule="evenodd" clip-rule="evenodd" d="M11.9315 5.99582C12.0907 5.99389 12.244 6.05524 12.3579 6.16639C12.4718 6.27753 12.5369 6.42936 12.5388 6.58848L12.6774 17.9876C12.6794 18.1468 12.618 18.3001 12.5069 18.414C12.3957 18.5279 12.2439 18.593 12.0848 18.5949C11.9257 18.5968 11.7723 18.5355 11.6584 18.4243C11.5445 18.3132 11.4795 18.1614 11.4775 18.0022L11.3389 6.60308C11.3369 6.44396 11.3983 6.29059 11.5094 6.17671C11.6206 6.06282 11.7724 5.99776 11.9315 5.99582Z" fill="#2C2C2C"/>
</svg>
