<svg width="78" height="18" viewBox="0 0 78 18" fill="none" xmlns="http://www.w3.org/2000/svg">
<path d="M0.880005 17V2.99995H6.70001C7.50001 2.99995 8.22001 3.19328 8.86001 3.57995C9.51334 3.96662 10.0333 4.49329 10.42 5.15995C10.8067 5.82662 11 6.57328 11 7.39995C11 8.23995 10.8067 8.99995 10.42 9.67995C10.0333 10.3466 9.51334 10.88 8.86001 11.28C8.22001 11.68 7.50001 11.88 6.70001 11.88H3.48001V17H0.880005ZM3.48001 9.47995H6.52001C6.85334 9.47995 7.15334 9.38662 7.42001 9.19995C7.70001 9.01329 7.92001 8.76662 8.08001 8.45995C8.25334 8.15329 8.34 7.80662 8.34 7.41995C8.34 7.03329 8.25334 6.69329 8.08001 6.39995C7.92001 6.09329 7.70001 5.85329 7.42001 5.67995C7.15334 5.49329 6.85334 5.39995 6.52001 5.39995H3.48001V9.47995Z" fill="#2C2C2C"/>
<path d="M19.7911 17.2C18.7911 17.2 17.8644 17.02 17.0111 16.66C16.1578 16.3 15.4111 15.8 14.7711 15.16C14.1444 14.5066 13.6578 13.74 13.3111 12.86C12.9644 11.98 12.7911 11.02 12.7911 9.97995C12.7911 8.93995 12.9644 7.97995 13.3111 7.09995C13.6578 6.21995 14.1444 5.45995 14.7711 4.81995C15.4111 4.16662 16.1578 3.65995 17.0111 3.29995C17.8644 2.93995 18.7911 2.75995 19.7911 2.75995C20.8044 2.75995 21.7378 2.93995 22.5911 3.29995C23.4444 3.65995 24.1844 4.16662 24.8111 4.81995C25.4378 5.47329 25.9244 6.23995 26.2711 7.11995C26.6178 7.98662 26.7911 8.93995 26.7911 9.97995C26.7911 11.0066 26.6178 11.96 26.2711 12.84C25.9244 13.72 25.4378 14.4866 24.8111 15.14C24.1844 15.7933 23.4444 16.3 22.5911 16.66C21.7378 17.02 20.8044 17.2 19.7911 17.2ZM19.7911 14.72C20.4311 14.72 21.0111 14.6066 21.5311 14.38C22.0644 14.14 22.5244 13.8066 22.9111 13.38C23.2978 12.94 23.5978 12.4333 23.8111 11.86C24.0378 11.2866 24.1511 10.66 24.1511 9.97995C24.1511 9.29995 24.0378 8.67329 23.8111 8.09995C23.5978 7.52662 23.2978 7.02662 22.9111 6.59995C22.5244 6.15995 22.0644 5.82662 21.5311 5.59995C21.0111 5.35995 20.4311 5.23995 19.7911 5.23995C19.1644 5.23995 18.5844 5.35995 18.0511 5.59995C17.5178 5.82662 17.0578 6.15329 16.6711 6.57995C16.2844 7.00662 15.9844 7.50662 15.7711 8.07995C15.5578 8.65329 15.4511 9.28662 15.4511 9.97995C15.4511 10.66 15.5578 11.2933 15.7711 11.88C15.9844 12.4533 16.2844 12.9533 16.6711 13.38C17.0578 13.8066 17.5178 14.14 18.0511 14.38C18.5844 14.6066 19.1644 14.72 19.7911 14.72Z" fill="#2C2C2C"/>
<path d="M33.3705 17L28.1385 0.199951H31.4025L34.3785 10.112C34.4745 10.416 34.5625 10.752 34.6425 11.12C34.7225 11.488 34.7945 11.856 34.8585 12.224C34.9225 12.576 34.9785 12.904 35.0265 13.208C35.0745 13.512 35.1225 13.768 35.1705 13.976L34.5225 13.952C34.7145 13.2 34.8665 12.592 34.9785 12.128C35.0905 11.664 35.1865 11.28 35.2665 10.976C35.3625 10.656 35.4585 10.36 35.5545 10.088L38.3865 2.83995H41.0505L43.8105 10.088C43.9705 10.536 44.1145 10.968 44.2425 11.384C44.3705 11.784 44.4745 12.184 44.5545 12.584C44.6505 12.968 44.7385 13.368 44.8185 13.784L44.2425 13.904C44.3065 13.52 44.3545 13.208 44.3865 12.968C44.4185 12.728 44.4505 12.512 44.4825 12.32C44.5145 12.128 44.5465 11.944 44.5785 11.768C44.6105 11.576 44.6585 11.352 44.7225 11.096C44.8025 10.824 44.8985 10.48 45.0105 10.064L47.9625 0.199951H51.2025L45.9465 17H43.6905L39.4185 6.77595L39.7065 6.87195L35.6505 17H33.3705Z" fill="#2C2C2C"/>
<path d="M53.4933 17V2.99995H62.6533V5.35995H56.0533V14.64H62.7333V17H53.4933ZM54.6933 11V8.67995H61.6333V11H54.6933Z" fill="#2C2C2C"/>
<path d="M65.9933 17V2.99995H72.0733C72.9133 2.99995 73.6799 3.19995 74.3733 3.59995C75.0666 3.98662 75.6133 4.51995 76.0133 5.19995C76.4266 5.86662 76.6333 6.61995 76.6333 7.45995C76.6333 8.25995 76.4266 8.99995 76.0133 9.67995C75.6133 10.3466 75.0666 10.88 74.3733 11.28C73.6933 11.6666 72.9266 11.86 72.0733 11.86H68.5333V17H65.9933ZM74.1133 17L70.5533 10.68L73.2333 10.18L77.1933 17.02L74.1133 17ZM68.5333 9.59995H72.0933C72.4799 9.59995 72.8133 9.51329 73.0933 9.33995C73.3866 9.15329 73.6133 8.89995 73.7733 8.57995C73.9333 8.25995 74.0133 7.90662 74.0133 7.51995C74.0133 7.07995 73.9133 6.69995 73.7133 6.37995C73.5133 6.05995 73.2333 5.80662 72.8733 5.61995C72.5133 5.43329 72.1 5.33995 71.6333 5.33995H68.5333V9.59995Z" fill="#2C2C2C"/>
</svg>
