<svg width="40" height="40" viewBox="0 0 40 40" fill="none" xmlns="http://www.w3.org/2000/svg">
<rect x="0.5" y="0.5" width="39" height="39" rx="19.5" stroke="#2C2C2C"/>
<path fill-rule="evenodd" clip-rule="evenodd" d="M17.4309 15.1339C17.4454 14.9755 17.5221 14.8293 17.6443 14.7275C17.7665 14.6256 17.9242 14.5765 18.0826 14.5908L24.3048 15.1568C24.4604 15.1747 24.6029 15.2528 24.7017 15.3743C24.8005 15.4958 24.8479 15.6512 24.8337 15.8072C24.8195 15.9632 24.7449 16.1074 24.6258 16.2092C24.5067 16.3109 24.3525 16.362 24.1962 16.3515L17.974 15.7856C17.8156 15.7711 17.6694 15.6944 17.5675 15.5722C17.4657 15.45 17.4166 15.2923 17.4309 15.1339Z" fill="#2C2C2C"/>
<path fill-rule="evenodd" clip-rule="evenodd" d="M24.8708 22.5738C24.7124 22.5881 24.5547 22.539 24.4325 22.4371C24.3103 22.3353 24.2335 22.1891 24.2191 22.0307L23.6531 15.8084C23.6427 15.6522 23.6938 15.498 23.7955 15.3789C23.8972 15.2598 24.0415 15.1851 24.1975 15.1709C24.3535 15.1568 24.5088 15.2042 24.6304 15.303C24.7519 15.4018 24.8299 15.5442 24.8479 15.6998L25.4138 21.9221C25.4282 22.0805 25.379 22.2382 25.2772 22.3604C25.1754 22.4826 25.0292 22.5593 24.8708 22.5738Z" fill="#2C2C2C"/>
<path fill-rule="evenodd" clip-rule="evenodd" d="M24.2505 15.7541C24.363 15.8667 24.4262 16.0193 24.4262 16.1784C24.4262 16.3375 24.363 16.4901 24.2505 16.6027L16.1895 24.6637C16.0769 24.7762 15.9243 24.8394 15.7652 24.8394C15.6061 24.8394 15.4535 24.7762 15.3409 24.6637C15.2284 24.5512 15.1652 24.3986 15.1652 24.2394C15.1652 24.0803 15.2284 23.9277 15.3409 23.8152L23.402 15.7541C23.5145 15.6416 23.6671 15.5784 23.8262 15.5784C23.9853 15.5784 24.138 15.6416 24.2505 15.7541Z" fill="#2C2C2C"/>
</svg>
